# xmcd
#
# Track frame offsets:
# 150
# 12490
# 27945
# 39527
# 59687
# 73160
# 89082
# 104562
# 115407
# 128105
# 143655
# 161477
# 180605
# 189875
# 202100
# 216985
# 228455
# 240000
# 260042
# 277137
#
# Disc length: 3878 seconds
#
#
# Revision: 6
# Processed by: cddbd v1.5.2PL0 Copyright (c) Steve Scherf et al.
# Submitted via: FreeRIP 2.951 
#
DISCID=330f2414
DTITLE=Various Artist - The Very Best Of Country Music CD2
DYEAR=1994
DGENRE=Country
TTITLE0=Waylon Jennings - Mason Dixon Line
TTITLE1=Billy Ray Cyrus - Achy Breaky Heart
TTITLE2=George Strait - You're Right I'm Wrong
TTITLE3=Nanci Griffith - Goin' Gone
TTITLE4=Tammy Wynette - DIVORCE
TTITLE5=Willie Nelson - Always On My Mind
TTITLE6=Rita Coolidge - Words
TTITLE7=Patsy Cline - You're Cheatin' Heart
TTITLE8=Don Williams - You're My Best Friend
TTITLE9=BJ Thomas - What Ever Happened To Old Fashioned Love
TTITLE10=Bobby Goldsboro - Honey
TTITLE11=Ronnie Milsap - Lost In The Fifties
TTITLE12=Jim Reeves - I Won't Forget You
TTITLE13=Dominic Kirwan - Someone Had To Teach You
TTITLE14=Rosanne Cash - Seven Year Itch
TTITLE15=Patty Loveless - Timber, I'm Falling In Love
TTITLE16=Vince Gill - Take Your Memory With You
TTITLE17=Hal Ketchum - Past The Point Of Rescue
TTITLE18=Wyonna - Is It Over Yet
TTITLE19=Kathy Mattea - Listen To The Radio
EXTD=
EXTT0=
EXTT1=
EXTT2=
EXTT3=
EXTT4=
EXTT5=
EXTT6=
EXTT7=
EXTT8=
EXTT9=
EXTT10=
EXTT11=
EXTT12=
EXTT13=
EXTT14=
EXTT15=
EXTT16=
EXTT17=
EXTT18=
EXTT19=
PLAYORDER=
